<svg width="25" height="24" viewBox="0 0 25 24" fill="none" xmlns="http://www.w3.org/2000/svg">
<path d="M12.75 17.3334H18L16.5248 15.8348C16.1247 15.4284 15.9 14.8771 15.9 14.3024V10.9334C15.9 8.14676 14.1469 5.77612 11.6999 4.89753V4.53336C11.6999 3.35515 10.7597 2.40002 9.59995 2.40002C8.44015 2.40002 7.49995 3.35515 7.49995 4.53336V4.89753C5.05305 5.77612 3.29995 8.14676 3.29995 10.9334V14.3024C3.29995 14.8771 3.0752 15.4284 2.67513 15.8348L1.19995 17.3334H6.44995M12.75 17.3334V18.4C12.75 20.1673 11.3396 21.6 9.59995 21.6C7.86025 21.6 6.44995 20.1673 6.44995 18.4V17.3334M12.75 17.3334H6.44995" stroke="#454545" stroke-width="1.6" stroke-linecap="round" stroke-linejoin="round"/>
<path d="M21.7283 18.0428C19.7165 20.0547 16.4546 20.0547 14.4428 18.0428C12.4309 16.031 12.4309 12.7691 14.4428 10.7573C16.4546 8.74543 19.7165 8.74543 21.7283 10.7573C23.7402 12.7691 23.7402 16.031 21.7283 18.0428Z" fill="white"/>
<path d="M15.8999 14.4L18.0856 14.4M18.0856 14.4L20.2712 14.4M18.0856 14.4V12.2144M18.0856 14.4V16.5857M21.7283 18.0428C19.7165 20.0547 16.4546 20.0547 14.4428 18.0428C12.4309 16.031 12.4309 12.7691 14.4428 10.7573C16.4546 8.74543 19.7165 8.74543 21.7283 10.7573C23.7402 12.7691 23.7402 16.031 21.7283 18.0428Z" stroke="#454545" stroke-width="1.6" stroke-linecap="round" stroke-linejoin="round"/>
<path d="M1.19995 4.80002C1.79995 3.60002 2.39995 3.00002 3.59995 2.40002" stroke="#454545" stroke-width="1.6" stroke-linecap="round"/>
<path d="M18 4.80002C17.4 3.60002 16.8 3.00002 15.6 2.40002" stroke="#454545" stroke-width="1.6" stroke-linecap="round"/>
</svg>
