<svg width="24" height="24" viewBox="0 0 24 24" fill="none" xmlns="http://www.w3.org/2000/svg">
<path d="M12.6546 5.34507C12.3432 4.88498 11.6568 4.88498 11.3454 5.34507L7.13213 11.5702C6.95596 11.8305 6.95596 12.1696 7.13213 12.4298L11.3454 18.6549C11.6568 19.115 12.3432 19.115 12.6546 18.6549L16.8679 12.4298C17.044 12.1695 17.044 11.8304 16.8679 11.5702L12.6546 5.34507ZM12 16.8281L9.4948 13.1268L11.8457 13.5899C11.9475 13.61 12.0524 13.61 12.1543 13.5899L14.5051 13.1268L12 16.8281ZM12 12.0398L9.09289 11.4671L12 7.17189L14.9071 11.4671L12 12.0398Z" fill="#A2A2A2" stroke="#A2A2A2" stroke-width="0.3"/>
<path d="M0.85 12.0359H0.849892L0.850108 12.0416C1.41042 26.8071 22.5918 26.8028 23.1499 12.0414L23.15 12.0414V12.0358C23.15 5.88762 18.1483 0.885889 12 0.885889C5.85173 0.885889 0.85 5.88762 0.85 12.0359ZM12 21.5968C6.72915 21.5968 2.4406 17.3092 2.43906 12.0387C2.92254 -0.630107 21.0794 -0.626862 21.5609 12.0389C21.5594 17.3092 17.2708 21.5968 12 21.5968Z" fill="#A2A2A2" stroke="#A2A2A2" stroke-width="0.3"/>
</svg>
