<svg width="20" height="18" viewBox="0 0 20 18" fill="none" xmlns="http://www.w3.org/2000/svg">
<path d="M9.04895 1.67115C9.34833 0.749884 10.6517 0.749883 10.951 1.67115L12.2454 5.6541C12.3792 6.06609 12.7632 6.34503 13.1964 6.34504L17.3843 6.3452C18.353 6.34524 18.7558 7.58479 17.9721 8.1542L14.5841 10.616C14.2336 10.8706 14.087 11.3219 14.2208 11.7339L15.5148 15.717C15.8141 16.6383 14.7597 17.4044 13.976 16.835L10.5878 14.3735C10.2373 14.1189 9.76272 14.1189 9.41225 14.3735L6.02401 16.835C5.24031 17.4044 4.18588 16.6383 4.48519 15.717L5.77919 11.7339C5.91304 11.3219 5.76639 10.8706 5.41594 10.616L2.02789 8.1542C1.24423 7.58479 1.64698 6.34524 2.61567 6.3452L6.80364 6.34504C7.23684 6.34503 7.62077 6.06609 7.75465 5.6541L9.04895 1.67115Z" stroke="#A2A2A2" stroke-width="1.8"/>
</svg>
