<svg width="24" height="24" viewBox="0 0 24 24" fill="none" xmlns="http://www.w3.org/2000/svg">
<path opacity="0.5" fill-rule="evenodd" clip-rule="evenodd" d="M17.3659 6.0968C17.811 6.24517 18.0516 6.72629 17.9032 7.1714L16.224 12.2092C15.6249 14.0065 13.3437 14.545 12.004 13.2054L10.7947 11.996C10.3481 11.5495 9.58772 11.729 9.38801 12.3281L7.70875 17.3659C7.56038 17.811 7.07927 18.0515 6.63416 17.9032C6.18905 17.7548 5.9485 17.2737 6.09687 16.8286L7.77612 11.7908C8.37525 9.99343 10.6564 9.45493 11.9961 10.7946L13.2054 12.0039C13.652 12.4505 14.4124 12.271 14.6121 11.6719L16.2913 6.6341C16.4397 6.18899 16.9208 5.94843 17.3659 6.0968Z" fill="#045DE9" stroke="white" stroke-width="0.4" stroke-linecap="round" stroke-linejoin="round"/>
</svg>
