<svg width="26" height="26" viewBox="0 0 26 26" fill="none" xmlns="http://www.w3.org/2000/svg">
<path d="M11.4172 9H8.58278C8.26093 9 8 9.25585 8 9.57143V16.4286C8 16.7442 8.26093 17 8.58278 17C8.90463 17 9.16556 16.7442 9.16556 16.4286V13.5065H11.192C11.5139 13.5065 11.7748 13.2507 11.7748 12.9351C11.7748 12.6195 11.5139 12.3637 11.192 12.3637H9.16556V10.1429H11.4172C11.7391 10.1429 12 9.88701 12 9.57143C12 9.25585 11.7391 9 11.4172 9Z" fill="#A2A2A2" stroke="#A2A2A2" stroke-width="0.5"/>
<path d="M15.6659 12.7567L17.5782 9.90053C17.7509 9.64255 17.6922 9.28606 17.447 9.1043C17.2018 8.92259 16.863 8.98438 16.6902 9.24236L15.0021 11.7638L13.3164 9.24267C13.1438 8.98461 12.8051 8.92259 12.5598 9.10408C12.3144 9.28567 12.2555 9.64209 12.428 9.90022L14.3376 12.7562L12.0991 16.0995C11.9264 16.3575 11.9852 16.7139 12.2304 16.8957C12.3254 16.9662 12.4346 17 12.5426 17C12.7133 17 12.8813 16.9156 12.9871 16.7576L15.0014 13.7492L17.0127 16.7573C17.1184 16.9155 17.2865 17 17.4574 17C17.5653 17 17.6743 16.9662 17.7693 16.8959C18.0147 16.7143 18.0736 16.3579 17.9011 16.0998L15.6659 12.7567Z" fill="#A2A2A2" stroke="#A2A2A2" stroke-width="0.5"/>
<path d="M21.7581 5.71506L21.8255 5.58103L21.8407 5.58869C22.4209 5.88022 23.1242 6.23357 23.5232 6.92323C23.9172 7.604 23.8736 8.38471 23.8378 9.02829L23.8368 9.04553L23.687 9.03719L23.8368 9.04554C23.8134 9.46466 23.7951 9.82459 23.8656 10.0887C23.9303 10.3307 24.1193 10.6209 24.343 10.9607L24.3522 10.9746C24.713 11.5227 25.15 12.1863 25.15 13C25.15 13.8137 24.7131 14.4773 24.3522 15.0254L24.3431 15.0393L24.3431 15.0393C24.1193 15.379 23.9304 15.6694 23.8657 15.9114C23.8657 15.9114 23.8656 15.9114 23.8656 15.9114L23.7207 15.8726C23.6426 16.1651 23.6642 16.5526 23.687 16.963L23.687 16.9632C23.7234 17.618 23.7647 18.36 23.3933 19.0018C23.0167 19.6527 22.348 19.9887 21.7579 20.2852L21.7581 5.71506ZM21.7581 5.71506L21.8255 5.58103C21.4547 5.39472 21.1384 5.2339 20.9524 5.04787L20.9524 5.04786C20.7664 4.86181 20.6056 4.54555 20.4192 4.1748L20.4117 4.15975C20.1201 3.57944 19.7667 2.87603 19.077 2.47686L19.0019 2.60669L19.077 2.47685C18.3959 2.08279 17.6148 2.12639 16.9711 2.16233L16.9546 2.16325C16.5354 2.18657 16.1755 2.20496 15.9115 2.13436L15.9115 2.13435C15.6695 2.06965 15.3791 1.88066 15.0393 1.65692L15.0393 1.65692L15.0255 1.64784C14.4775 1.28698 13.8138 0.85 13 0.85C12.1863 0.85 11.5227 1.28696 10.9746 1.64786L10.9607 1.65696L10.9607 1.65697C10.621 1.8807 10.3307 2.06968 10.0887 2.13439L21.7581 5.71506ZM9.0455 2.16325L9.04556 2.16325C9.4646 2.18666 9.82453 2.20492 10.0887 2.1344L9.0455 2.16325ZM9.0455 2.16325L9.02696 2.16222C8.38375 2.12649 7.60355 2.08315 6.92325 2.4768L9.0455 2.16325ZM1.65692 10.9607L1.65693 10.9607C1.88065 10.621 2.06965 10.3306 2.13435 10.0886C2.20492 9.82451 2.18657 9.46462 2.16325 9.04538L2.16228 9.02792C2.12645 8.3844 2.08298 7.60373 2.47685 6.92305C2.47686 6.92305 2.47686 6.92305 2.47686 6.92305L2.60669 6.99817L1.65692 10.9607ZM1.65692 10.9607L1.64778 10.9746C1.28693 11.5227 0.85 12.1863 0.85 13C0.85 13.8136 1.28687 14.4772 1.6477 15.0253L1.65691 15.0393L1.65692 15.0393M1.65692 10.9607L1.65692 15.0393M1.65692 15.0393C1.88061 15.379 2.0696 15.6693 2.1343 15.9113L1.65692 15.0393ZM2.16315 16.9545L2.16315 16.9545C2.18652 16.5353 2.20487 16.1754 2.13431 15.9113L2.16315 16.9545ZM2.16315 16.9545L2.16219 16.9717C2.12632 17.6153 2.08279 18.396 2.47672 19.0768C2.87575 19.7664 3.57902 20.1198 4.15924 20.4113L4.17448 20.419C4.54527 20.6053 4.86152 20.7661 5.04752 20.9521L5.04753 20.9521M2.16315 16.9545L5.04753 20.9521M5.04753 20.9521C5.23358 21.1382 5.3944 21.4545 5.58071 21.8252L5.58828 21.8403C5.87982 22.4206 6.23321 23.124 6.92294 23.5231L6.99808 23.3933M5.04753 20.9521L6.99808 23.3933M6.99808 23.3933L6.92295 23.5231C7.60378 23.9171 8.38457 23.8736 9.02828 23.8377L9.04534 23.8368L9.037 23.687L6.99808 23.3933ZM22.3622 15.5096L22.2172 15.4708C22.3548 14.9563 22.6457 14.5145 22.9122 14.1097L22.9179 14.1011C23.0606 13.8844 23.1934 13.6823 23.2913 13.4922C23.3898 13.3006 23.4438 13.1379 23.4438 13C23.4438 12.8622 23.3898 12.6995 23.2913 12.5079C23.1934 12.3177 23.0606 12.1157 22.9179 11.8989L22.9117 11.8895C22.6454 11.485 22.3547 11.0435 22.2173 10.5292C22.075 9.99655 22.105 9.45666 22.1326 8.96072L22.1332 8.95057C22.1473 8.69713 22.1603 8.46084 22.1507 8.25357C22.141 8.0439 22.1086 7.88508 22.0464 7.77764C21.9816 7.66559 21.8574 7.55569 21.6787 7.44128C21.5017 7.32798 21.2884 7.22061 21.0595 7.10558L21.0498 7.10071C20.6099 6.87969 20.1304 6.63878 19.746 6.25429L19.852 6.14823L19.746 6.25429C19.3615 5.86967 19.1205 5.39004 18.8994 4.95L18.8947 4.94081C18.7797 4.71181 18.6723 4.49845 18.559 4.32147C18.4446 4.14274 18.3347 4.01854 18.2226 3.95368C18.1151 3.8915 17.9562 3.85906 17.7466 3.84933C17.5393 3.83971 17.303 3.8527 17.0496 3.86683C17.0496 3.86683 17.0495 3.86683 17.0495 3.86683L17.0419 3.86726C16.5453 3.89506 16.0045 3.92533 15.471 3.78276L15.4709 3.78275C14.9563 3.64518 14.5145 3.35428 14.1097 3.08776L14.1011 3.08208C13.8844 2.93938 13.6823 2.80658 13.4922 2.70873C13.3006 2.61017 13.1379 2.55625 13 2.55625C12.8622 2.55625 12.6995 2.61017 12.5079 2.70873C12.3178 2.80659 12.1158 2.93939 11.899 3.08212L11.899 3.08213L11.8898 3.0882C11.4852 3.35456 11.0436 3.64529 10.5293 3.78276L10.5293 3.78276C9.99686 3.92502 9.4572 3.895 8.96158 3.86744L8.95067 3.86683L8.95066 3.86683C8.69724 3.85273 8.46096 3.83972 8.25369 3.84932C8.04404 3.85903 7.88521 3.89143 7.77774 3.95358L22.3622 15.5096ZM22.3622 15.5096L22.2172 15.4709C22.0749 16.0035 22.1049 16.5434 22.1326 17.0394L22.1331 17.0495C22.1472 17.303 22.1602 17.5393 22.1506 17.7466C22.1409 17.9563 22.1085 18.1151 22.0463 18.2226C21.9814 18.3347 21.8572 18.4446 21.6785 18.559C21.5015 18.6723 21.2882 18.7797 21.0592 18.8947L21.1265 19.0287M22.3622 15.5096L21.1265 19.0287M21.1265 19.0287L21.0592 18.8947L21.0498 18.8994C20.6098 19.1205 20.1302 19.3615 19.7457 19.7459L19.7456 19.7459M21.1265 19.0287L19.7456 19.7459M19.7456 19.7459C19.3612 20.1305 19.1202 20.61 18.8992 21.0499L18.8944 21.0594C18.7793 21.2884 18.672 21.5017 18.5587 21.6786C18.4443 21.8574 18.3343 21.9816 18.2223 22.0464C18.1148 22.1086 17.956 22.141 17.7463 22.1507C17.5391 22.1603 17.3028 22.1473 17.0493 22.1332L17.041 22.2829L17.0493 22.1332L17.0387 22.1326C16.5429 22.105 16.0032 22.0749 15.4707 22.2172C14.9564 22.3547 14.5148 22.6455 14.1102 22.9118L14.101 22.9179L14.101 22.9179M19.7456 19.7459L14.101 22.9179M14.101 22.9179C13.8842 23.0606 13.6822 23.1934 13.4921 23.2913C13.3005 23.3898 13.1378 23.4438 13 23.4438C12.8621 23.4438 12.6994 23.3898 12.5078 23.2913C12.3177 23.1934 12.1156 23.0606 11.8989 22.9179L11.8903 22.9122C11.4855 22.6457 11.0437 22.3548 10.5291 22.2172L10.529 22.2172M14.101 22.9179L10.529 22.2172M10.529 22.2172C10.2145 22.1332 9.89945 22.1095 9.59317 22.1095C9.37548 22.1095 9.15949 22.1215 8.95123 22.1331L8.95048 22.1332C8.69702 22.1473 8.4607 22.1603 8.25341 22.1507C8.04373 22.1409 7.8849 22.1085 7.77746 22.0463L7.70233 22.1762L7.77745 22.0463C7.66535 21.9815 7.55543 21.8573 7.441 21.6785C7.32769 21.5016 7.22031 21.2882 7.10525 21.0592L6.97122 21.1265L7.10525 21.0592L7.10064 21.05C6.87954 20.61 6.63855 20.1303 6.25403 19.7457L6.14795 19.8518M10.529 22.2172L6.14795 19.8518M6.14795 19.8518L6.25403 19.7457C5.86959 19.3612 5.39011 19.1203 4.95022 18.8993L4.94053 18.8944C4.7116 18.7794 4.49827 18.672 4.32131 18.5587C4.14261 18.4443 4.01842 18.3344 3.95358 18.2224C3.89143 18.1149 3.85902 17.9561 3.84929 17.7464C3.83968 17.5392 3.85268 17.3029 3.86678 17.0494L3.86735 17.0393C3.89497 16.5433 3.92505 16.0035 3.78271 15.4708L3.6378 15.5095M6.14795 19.8518L3.6378 15.5095M3.6378 15.5095L3.78271 15.4708C3.64527 14.9565 3.3546 14.515 3.08828 14.1105L3.08209 14.1011C2.93938 13.8843 2.80658 13.6823 2.70873 13.4921C2.61017 13.3005 2.55625 13.1378 2.55625 13C2.55625 12.8621 2.61017 12.6994 2.70873 12.5078C2.80658 12.3177 2.93938 12.1156 3.08208 11.8989L3.08776 11.8903C3.35428 11.4855 3.64518 11.0437 3.78275 10.5292L3.78276 10.5291M3.6378 15.5095L3.78276 10.5291M3.78276 10.5291C3.92514 9.99646 3.89507 9.45657 3.86744 8.96063L3.86688 8.95048M3.78276 10.5291L3.86688 8.95048M3.86688 8.95048C3.85277 8.69702 3.83978 8.46071 3.84939 8.25342M3.86688 8.95048L3.84939 8.25342M3.95373 7.77739C4.01859 7.66532 4.1428 7.55541 4.3215 7.44101C4.49848 7.32771 4.71183 7.22034 4.94081 7.1053L4.94082 7.1053L4.95017 7.10059C5.39016 6.87953 5.86977 6.63855 6.25433 6.25408L6.25435 6.25406C6.63882 5.86954 6.87979 5.39 7.10084 4.95011L7.10562 4.94059L7.10562 4.94058C7.22066 4.71165 7.32803 4.49832 7.44133 4.32135C7.55574 4.14266 7.66564 4.01846 7.77771 3.95359L3.95373 7.77739ZM3.95373 7.77739C3.89154 7.88489 3.85912 8.04374 3.84939 8.25342M3.95373 7.77739L3.84939 8.25342M5.7145 21.7574C5.53248 21.3952 5.36055 21.053 5.15359 20.8461L5.7145 21.7574ZM5.7145 21.7574L5.71473 21.7578L5.7145 21.7574Z" fill="#A2A2A2" stroke="#A2A2A2" stroke-width="0.3"/>
</svg>
