<svg width="64" height="25" viewBox="0 0 64 25" fill="none" xmlns="http://www.w3.org/2000/svg">
<path d="M2 18.1429H0V25H64V1.00003H60L58 6.14289H56L54 11.2857H48L46 4.42861L44 11.2857C44 11.2857 42.6667 15.5715 42 15.5715L40 14.7143L38 15.5715L36 11.2857H34L32 4.42861H28L26 11.2857H24L22 7.00003H20L18 11.2857L16 18.1429H12L10 11.2857H4L2 18.1429Z" fill="url(#paint0_linear_24748_300145)" fill-opacity="0.3"/>
<path fill-rule="evenodd" clip-rule="evenodd" d="M59.4594 0.357178H64V1.64289H60.5406L58.5406 6.78575H56.5406L54.5406 11.9286H47.4144L46 7.07918L44.7248 11.4514L44.0141 11.289C44.7247 11.4514 44.7248 11.4514 44.7248 11.4514L44.7243 11.4525L44.7204 11.4649L44.7087 11.5021C44.6985 11.5344 44.6836 11.5814 44.6643 11.641C44.6259 11.7603 44.5704 11.9301 44.5018 12.1338C44.3648 12.5404 44.1742 13.0851 43.9615 13.6319C43.7507 14.174 43.5107 14.7378 43.2734 15.1737C43.1566 15.3881 43.0255 15.5999 42.8821 15.7675C42.811 15.8506 42.7168 15.9469 42.5971 16.0279C42.483 16.1051 42.2775 16.2143 42 16.2143H41.8229L40 15.4331L37.6064 16.4589L35.4922 11.9286H33.4144L31.4144 5.07146H28.5856L26.5856 11.9286H23.4922L21.4922 7.64289H20.5078L18.7153 11.484L16.5856 18.7857H11.4144L9.41442 11.9286H4.58558L2.58558 18.7857H0V17.5H1.41442L3.41442 10.6429H10.5856L12.5856 17.5H15.4144L17.2847 11.0875L19.4922 6.35718H22.5078L24.5078 10.6429H25.4144L27.4144 3.78575H32.5856L34.5856 10.6429H36.5078L38.3936 14.684L40 13.9956L41.829 14.7794C41.8555 14.7351 41.884 14.6853 41.9141 14.63C42.1143 14.2623 42.3326 13.7546 42.5385 13.2253C42.7425 12.7007 42.9269 12.174 43.0607 11.777C43.1275 11.5789 43.1814 11.4139 43.2185 11.2988C43.237 11.2412 43.2514 11.1961 43.261 11.1657L43.2719 11.1312L43.2745 11.1226L45.2724 4.27269H46.7276L48.5856 10.6429H53.4594L55.4594 5.50003H57.4594L59.4594 0.357178Z" fill="#FF4B55"/>
<defs>
<linearGradient id="paint0_linear_24748_300145" x1="32" y1="0.357178" x2="32" y2="25" gradientUnits="userSpaceOnUse">
<stop stop-color="#FF4E58"/>
<stop offset="1" stop-color="#FF4E58" stop-opacity="0"/>
</linearGradient>
</defs>
</svg>
