<svg width="30" height="28" viewBox="0 0 30 28" fill="none" xmlns="http://www.w3.org/2000/svg">
<path d="M7.56897 11.2717L8.35471 9.70024L11.8687 11.4572L11.0829 13.0287L7.56897 11.2717Z" fill="#FF4B55"/>
<path d="M18.1122 11.4548L21.6261 9.69786L22.4119 11.2693L18.8979 13.0263L18.1122 11.4548Z" fill="#FF4B55"/>
<path d="M18.2583 21.2887C18.1598 21.1902 17.3705 20.444 15.879 20.2175V18.3945H16.7579V16.6367H13.2423V18.3945H14.1212V20.2175C12.6297 20.444 11.8404 21.1902 11.7419 21.2887L12.9849 22.5317L12.9748 22.5415C13.0024 22.5157 13.6653 21.9102 15.0001 21.9102C16.3349 21.9102 16.9979 22.5157 17.0254 22.5415L17.0153 22.5317L18.2583 21.2887Z" fill="#FF4B55"/>
<path d="M24.668 0.816406C22.6129 0.816406 20.8377 1.98348 19.9594 3.71803C19.4139 3.53984 18.9186 3.45312 18.5156 3.45312C17.5507 3.45312 16.8638 3.74574 16.3119 3.98088C15.8513 4.17705 15.4874 4.33203 15 4.33203C14.5126 4.33203 14.1487 4.17705 13.6881 3.98088C13.1362 3.74574 12.4493 3.45312 11.4844 3.45312C11.0814 3.45312 10.5861 3.53984 10.0406 3.71803C9.16254 1.984 7.38768 0.816406 5.33203 0.816406C2.40697 0.816406 0 3.18535 0 6.08984C0 8.28383 1.40104 10.2554 3.48334 11.0295C3.00645 12.5546 2.69531 14.4045 2.69531 16.6367C2.69531 23.456 8.23652 27.1836 15 27.1836C21.7642 27.1836 27.3047 23.4555 27.3047 16.6367C27.3047 14.4045 26.9936 12.5546 26.5167 11.0295C28.598 10.2559 30 8.28494 30 6.08984C30 3.1884 27.5957 0.816406 24.668 0.816406ZM1.75781 6.08984C1.75781 4.15133 3.36117 2.57422 5.33203 2.57422C6.64477 2.57422 7.83979 3.3176 8.44043 4.44693C6.47484 5.59303 5.04322 7.34316 4.1093 9.38809C2.73182 8.88377 1.75781 7.56512 1.75781 6.08984ZM10.6055 21.0312V19.2734C10.6055 16.8503 12.5769 14.8789 15 14.8789C17.4231 14.8789 19.3945 16.8503 19.3945 19.2734V21.0312C19.3945 23.4544 17.4231 25.4258 15 25.4258C12.5769 25.4258 10.6055 23.4544 10.6055 21.0312ZM20.0602 24.5263C20.7484 23.533 21.1523 22.3285 21.1523 21.0312V19.2734C21.1523 15.881 18.3924 13.1211 15 13.1211C11.6076 13.1211 8.84766 15.881 8.84766 19.2734V21.0312C8.84766 22.3285 9.2516 23.533 9.93979 24.5263C6.89074 23.3392 4.45312 20.8859 4.45312 16.6367C4.45312 7.19715 10.3278 5.21094 11.4844 5.21094C12.0905 5.21094 12.5116 5.39035 12.9993 5.59807C13.5404 5.82857 14.1538 6.08984 15 6.08984C15.8462 6.08984 16.4596 5.82857 17.0007 5.59807C17.4884 5.39035 17.9095 5.21094 18.5156 5.21094C19.6722 5.21094 25.5469 7.19715 25.5469 16.6367C25.5469 20.8859 23.1093 23.3392 20.0602 24.5263ZM25.8906 9.38814C24.9565 7.34287 23.5249 5.59297 21.5595 4.44699C22.1602 3.3176 23.3552 2.57422 24.668 2.57422C26.6388 2.57422 28.2422 4.15133 28.2422 6.08984C28.2422 7.56512 27.2682 8.88377 25.8906 9.38814Z" fill="#FF4B55"/>
</svg>
