<svg width="32" height="30" viewBox="0 0 32 30" fill="none" xmlns="http://www.w3.org/2000/svg">
<path d="M32 4.27222L31.9987 0.468094L30.2309 3.83941C30.2139 3.87184 28.4931 7.08472 25.375 7.08472C21.7675 7.08472 21.6969 6.14722 19.75 6.14722C18.7208 6.14722 17.9881 6.45934 17.3993 6.71016C16.908 6.91941 16.52 7.08472 16 7.08472C15.48 7.08472 15.092 6.91941 14.6007 6.71016C14.0119 6.45934 13.2792 6.14722 12.25 6.14722C10.3237 6.14722 10.2061 7.08472 6.625 7.08472C3.50688 7.08472 1.78613 3.87184 1.77038 3.84191L0 0.415344V4.27222C0 9.26397 2.50525 11.8016 4.78813 13.0772C3.11331 13.7785 1.875 15.4304 1.875 17.3972V18.3347H6.625C7.15125 18.3347 7.66525 18.2475 8.15031 18.0809C8.17906 18.6293 8.27112 19.177 8.42775 19.7139C8.90137 21.3375 9.91656 22.6893 11.3125 23.5658V26.7722C11.3125 28.323 12.5742 29.5847 14.125 29.5847H17.875C19.4258 29.5847 20.6875 28.323 20.6875 26.7722V23.5662C22.0816 22.6918 23.0982 21.3391 23.5723 19.714C23.7289 19.1771 23.8209 18.6294 23.8497 18.081C24.3347 18.2475 24.8487 18.3348 25.375 18.3348H30.0625V17.3973C30.0625 15.4613 28.8826 13.7956 27.2043 13.0815C29.4892 11.8072 32 9.26947 32 4.27222ZM2.32219 7.36234C3.37756 8.22322 4.81063 8.95972 6.625 8.95972C8.18481 8.95972 9.19594 8.80672 9.93844 8.61359C10.5588 9.90441 10.5341 11.4049 9.86406 12.6789C9.08619 12.6083 7.53744 12.3755 6.01931 11.6087C4.16981 10.6744 2.9335 9.25203 2.32219 7.36234ZM3.92094 16.4597C4.32562 15.3796 5.40063 14.5847 6.625 14.5841H8.85931C8.66325 14.9899 8.50688 15.4087 8.39081 15.836C7.89188 16.2397 7.27394 16.4597 6.62506 16.4597H3.92094ZM17.875 27.7097H14.125C13.6081 27.7097 13.1875 27.2892 13.1875 26.7722V23.6007C13.7323 23.3641 14.738 23.0222 16 23.0222C17.2629 23.0222 18.2691 23.3646 18.8125 23.6004V26.7722C18.8125 27.2892 18.3919 27.7097 17.875 27.7097ZM19.7246 21.9547C19.0336 21.6348 17.7011 21.1473 16 21.1473C14.2991 21.1473 12.9669 21.6347 12.2758 21.9546C10.1602 20.596 9.392 17.7095 10.5774 15.3387C11.3995 13.624 12.2563 12.6891 12.2563 10.5723C12.2563 9.70222 12.0814 8.85222 11.7458 8.06334C11.8991 8.03659 12.0601 8.02228 12.25 8.02228C12.8965 8.02228 13.3457 8.21366 13.8659 8.43522C14.4431 8.68109 15.0973 8.95978 16 8.95978C16.9027 8.95978 17.5569 8.68109 18.1341 8.43522C18.6542 8.21366 19.1036 8.02228 19.75 8.02228C19.9399 8.02228 20.1009 8.03659 20.2542 8.06334C19.9185 8.85222 19.7437 9.70216 19.7437 10.5723C19.7437 12.689 20.6006 13.6242 21.4226 15.3386C22.6087 17.7108 21.8389 20.5995 19.7246 21.9547ZM28.0269 16.4597H25.375C24.7261 16.4597 24.1081 16.2397 23.6092 15.836C23.4931 15.4087 23.3368 14.9899 23.1407 14.5847H25.375C26.5973 14.5847 27.6399 15.3684 28.0269 16.4597ZM25.9807 11.6087C24.4621 12.3757 22.9129 12.6084 22.136 12.679C21.4659 11.405 21.4412 9.90441 22.0616 8.61359C22.8041 8.80666 23.8152 8.95972 25.375 8.95972C27.1894 8.95972 28.6224 8.22316 29.6779 7.36234C29.0664 9.25203 27.8302 10.6744 25.9807 11.6087Z" fill="#045DE9"/>
<path d="M11.584 16.1849L12.9096 14.8593L14.7843 16.7339L13.4587 18.0596L11.584 16.1849Z" fill="#045DE9"/>
<path d="M17.2083 16.7344L19.083 14.8597L20.4086 16.1853L18.5339 18.06L17.2083 16.7344Z" fill="#045DE9"/>
</svg>
