<svg width="16" height="16" viewBox="0 0 16 16" fill="none" xmlns="http://www.w3.org/2000/svg">
<path d="M14 8C14 11.3137 11.3137 14 8 14C4.68629 14 2 11.3137 2 8C2 4.68629 4.68629 2 8 2C11.3137 2 14 4.68629 14 8Z" stroke="#454545" stroke-width="1.3"/>
<path d="M7.24854 9.45952H8.59442V9.33878C8.60152 8.64631 8.8501 8.32316 9.41118 7.9858C10.0752 7.59162 10.5085 7.06961 10.5085 6.23509C10.5085 4.99219 9.50706 4.26776 8.09726 4.26776C6.80819 4.26776 5.75706 4.94248 5.7251 6.36293H7.17396C7.19527 5.7841 7.62496 5.47515 8.09015 5.47515C8.56956 5.47515 8.95663 5.79475 8.95663 6.28836C8.95663 6.75356 8.61927 7.06251 8.18248 7.33949C7.58589 7.71591 7.25209 8.09589 7.24854 9.33878V9.45952ZM7.94811 11.7322C8.40265 11.7322 8.79683 11.3523 8.80038 10.88C8.79683 10.4148 8.40265 10.0348 7.94811 10.0348C7.47936 10.0348 7.09229 10.4148 7.09584 10.88C7.09229 11.3523 7.47936 11.7322 7.94811 11.7322Z" fill="#454545"/>
</svg>
