<svg width="180" height="24" viewBox="0 0 180 24" fill="none" xmlns="http://www.w3.org/2000/svg">
<path d="M17.3544 6.87573C15.305 6.87573 13.43 7.92221 12.2963 9.57912C11.4243 7.8786 9.72371 6.87573 7.63071 6.87573C5.75574 6.87573 3.96797 7.7914 2.79066 9.2303L2.31102 7.44257C2.26741 7.31176 2.1802 7.22456 2.04939 7.22456H0.305228C0.130812 7.22456 0 7.35537 0 7.52978V22.442C0 22.6164 0.130812 22.7473 0.305228 22.7473H2.87787C3.05228 22.7473 3.1831 22.6164 3.1831 22.442V14.2447C3.1831 11.5849 4.79645 9.70993 6.84584 9.70993C8.80802 9.70993 9.85452 11.1488 9.85452 13.6342V22.442C9.85452 22.6164 9.98533 22.7473 10.1597 22.7473H12.6888C12.8632 22.7473 12.994 22.6164 12.994 22.442V14.2447C12.994 11.5849 14.5638 9.70993 16.6567 9.70993C18.5753 9.70993 19.6654 11.1488 19.6654 13.6342V22.442C19.6654 22.6164 19.7962 22.7473 19.9707 22.7473H22.5869C22.7613 22.7473 22.8921 22.6164 22.8921 22.442V12.8494C22.8485 9.36111 20.6247 6.87573 17.3544 6.87573Z" fill="#0A1B2B"/>
<path d="M38.6769 7.44272L38.3716 9.14324C36.9763 7.70434 34.9705 6.83228 32.7031 6.83228C28.0811 6.83228 24.6364 10.3205 24.6364 14.9861C24.6364 19.6516 28.0811 23.1398 32.7031 23.1398C34.9705 23.1398 36.9327 22.2678 38.328 20.8725L38.5896 22.5294C38.6333 22.6602 38.7205 22.791 38.8949 22.791H40.9007C41.0751 22.791 41.2059 22.6602 41.2059 22.4858V7.48632C41.2059 7.31191 41.0751 7.1811 40.9007 7.1811H38.9821C38.8513 7.1811 38.7205 7.31191 38.6769 7.44272ZM32.9211 20.044C29.9997 20.044 27.8194 17.8639 27.8194 14.9424C27.8194 12.021 29.9997 9.84089 32.9211 9.84089C35.8426 9.84089 37.9792 12.021 37.9792 14.9424C37.9792 17.9075 35.8426 20.044 32.9211 20.044Z" fill="#0A1B2B"/>
<path d="M52.979 7.44279V9.84096C52.979 10.0154 52.8482 10.1462 52.6738 10.1462H51.1041C48.4442 10.1462 47.1361 11.6723 47.1361 14.4629V22.4423C47.1361 22.6167 47.0053 22.7475 46.8309 22.7475H44.2582C44.0838 22.7475 43.953 22.6167 43.953 22.4423V13.7216C43.953 10.1026 46.8745 7.13757 50.5372 7.13757H52.6738C52.8482 7.13757 52.979 7.26838 52.979 7.44279Z" fill="#0A1B2B"/>
<path d="M43.953 13.8087L46.9181 9.53557L45.9152 7.39902C45.8716 7.31182 45.7408 7.22461 45.6536 7.22461H44.3018C44.1274 7.22461 43.9966 7.35542 43.9966 7.52983V13.8087H43.953Z" fill="#0A1B2B"/>
<path d="M68.0222 22.4857L62.3973 14.6372L67.499 7.44264C67.5862 7.35544 67.499 7.22463 67.3682 7.22463H64.1851C64.0107 7.22463 63.7926 7.31183 63.7054 7.48625L58.909 14.3319C58.7782 14.5499 58.7782 14.8116 58.909 15.0296L64.1415 22.5293C64.2723 22.7037 64.4467 22.7909 64.6211 22.7909H67.935C68.0222 22.7473 68.1094 22.6165 68.0222 22.4857ZM57.4265 1.64343H54.8538C54.6794 1.64343 54.5486 1.77424 54.5486 1.94865V22.4421C54.5486 22.6165 54.6794 22.7473 54.8538 22.7473H57.4265C57.6009 22.7473 57.7317 22.6165 57.7317 22.4421V1.94865C57.6881 1.77424 57.5573 1.64343 57.4265 1.64343Z" fill="#0A1B2B"/>
<path d="M75.3914 6.83228C70.8566 6.83228 67.4119 10.3205 67.4119 14.9861C67.4119 19.608 70.8566 23.1398 75.3914 23.1398C78.7925 23.1398 81.5832 21.2213 82.8477 18.0819C82.8913 17.9947 82.8041 17.8639 82.7169 17.8639H79.9262C79.7082 17.8639 79.5338 17.9511 79.403 18.1255C78.5745 19.39 77.1356 20.1312 75.3914 20.1312C72.8624 20.1312 71.031 18.6051 70.6386 16.0761H82.6733C82.9785 16.0761 83.2401 15.8145 83.2837 15.5093C83.2837 15.3349 83.2837 15.2041 83.2837 15.0297C83.3273 10.4949 80.1442 6.83228 75.3914 6.83228ZM70.7258 13.4599C71.249 11.149 72.9932 9.71008 75.3914 9.71008C77.746 9.71008 79.5338 11.1054 80.1006 13.4599H70.7258Z" fill="#0A1B2B"/>
<path d="M101.903 13.3727C100.028 13.0675 98.4578 12.8059 98.4578 11.4106C98.4578 10.2769 99.5479 9.53567 101.336 9.53567C103.08 9.53567 104.214 10.2333 104.388 11.5414C104.388 11.6722 104.519 11.803 104.693 11.803H107.135C107.309 11.803 107.44 11.6722 107.44 11.4978C107.222 8.66361 104.911 6.83228 101.467 6.83228C97.8474 6.83228 95.4491 8.75081 95.4491 11.5414C95.4491 15.1169 98.5014 15.7273 101.074 16.1633C102.993 16.4686 104.65 16.8174 104.65 18.2999C104.65 19.608 103.341 20.3056 101.597 20.3056C99.8096 20.3056 98.5014 19.5208 98.2834 18.0383C98.2834 17.9075 98.1526 17.7767 97.9782 17.7767H95.4491C95.2747 17.7767 95.1439 17.9075 95.1439 18.0819C95.3619 21.1341 97.8038 23.0526 101.467 23.0526C105.26 23.0526 107.745 21.0905 107.745 18.0819C107.745 14.332 104.562 13.8088 101.903 13.3727Z" fill="#0A1B2B"/>
<path d="M94.1847 20.1312V22.4421C94.1847 22.6166 94.0539 22.7474 93.8795 22.7474H91.7865C88.3854 22.7474 86.2924 20.6544 86.2924 17.2098V9.92806H83.8069C83.6325 9.92806 83.5017 9.79725 83.5017 9.62284V7.48629C83.5017 7.31188 83.6325 7.18107 83.8069 7.18107H85.8563C86.2052 7.18107 86.4668 6.91945 86.4668 6.57062V3.86723C86.4668 3.69282 86.5976 3.56201 86.772 3.56201H89.1702C89.3447 3.56201 89.4755 3.69282 89.4755 3.86723V7.18107H93.7923C93.9667 7.18107 94.0975 7.31188 94.0975 7.48629V9.62284C94.0975 9.79725 93.9667 9.92806 93.7923 9.92806H89.4755V16.9482C89.4755 18.7795 90.522 19.826 92.3969 19.826H93.8795C94.0539 19.826 94.1847 19.9568 94.1847 20.1312Z" fill="#0A1B2B"/>
<path d="M135.26 17.079C135.042 17.079 134.824 17.2098 134.737 17.3842C133.865 19.0847 132.295 20.044 130.376 20.044C127.629 20.044 125.493 17.8203 125.493 14.9424C125.493 12.0646 127.586 9.84089 130.376 9.84089C132.295 9.84089 133.908 10.8002 134.78 12.4135C134.867 12.5879 135.085 12.7187 135.303 12.7187H137.92C138.007 12.7187 138.094 12.6315 138.051 12.5443C137.135 9.09964 134.17 6.83228 130.42 6.83228C125.798 6.83228 122.266 10.3205 122.266 14.9424C122.266 19.5644 125.798 23.0962 130.42 23.0962C134.17 23.0962 137.222 20.7853 138.138 17.2534C138.181 17.1662 138.094 17.079 138.007 17.079H135.26Z" fill="#0A1B2B"/>
<path d="M147.425 6.83228C142.672 6.83228 139.141 10.2769 139.141 14.9861C139.141 19.6516 142.672 23.1398 147.425 23.1398C152.178 23.1398 155.71 19.6516 155.71 14.9861C155.71 10.2769 152.135 6.83228 147.425 6.83228ZM147.425 20.044C144.504 20.044 142.367 17.9075 142.367 14.9424C142.367 11.9774 144.46 9.84089 147.425 9.84089C150.347 9.84089 152.483 11.9774 152.483 14.9424C152.483 17.9075 150.347 20.044 147.425 20.044Z" fill="#0A1B2B"/>
<path d="M174.591 6.87573C172.541 6.87573 170.666 7.92221 169.533 9.57912C168.66 7.8786 166.96 6.87573 164.867 6.87573C162.992 6.87573 161.204 7.7914 160.027 9.2303L159.547 7.44257C159.504 7.31176 159.373 7.22456 159.242 7.22456H157.498C157.323 7.22456 157.193 7.35537 157.193 7.52978V22.442C157.193 22.6164 157.323 22.7473 157.498 22.7473H160.07C160.245 22.7473 160.376 22.6164 160.376 22.442V14.2447C160.376 11.5849 161.989 9.70993 164.038 9.70993C166.001 9.70993 167.047 11.1488 167.047 13.6342V22.442C167.047 22.6164 167.178 22.7473 167.352 22.7473H169.881C170.056 22.7473 170.187 22.6164 170.187 22.442V14.2447C170.187 11.5849 171.756 9.70993 173.806 9.70993C175.724 9.70993 176.814 11.1488 176.814 13.6342V22.442C176.814 22.6164 176.945 22.7473 177.12 22.7473H179.692C179.867 22.7473 179.998 22.6164 179.998 22.442V12.8494C180.085 9.36111 177.861 6.87573 174.591 6.87573Z" fill="#0A1B2B"/>
<path d="M115.028 14.0704C117.026 14.0704 118.647 12.4501 118.647 10.4513C118.647 8.45258 117.026 6.83228 115.028 6.83228C113.029 6.83228 111.408 8.45258 111.408 10.4513C111.408 12.4501 113.029 14.0704 115.028 14.0704Z" fill="#6E6FD5"/>
<path opacity="0.63" d="M115.027 19.4771C117.026 19.4771 118.647 18.462 118.647 17.2097C118.647 15.9575 117.026 14.9424 115.027 14.9424C113.029 14.9424 111.408 15.9575 111.408 17.2097C111.408 18.462 113.029 19.4771 115.027 19.4771Z" fill="#6E6FD5"/>
<path opacity="0.4" d="M115.027 23.0962C117.026 23.0962 118.647 22.491 118.647 21.7445C118.647 20.998 117.026 20.3928 115.027 20.3928C113.029 20.3928 111.408 20.998 111.408 21.7445C111.408 22.491 113.029 23.0962 115.027 23.0962Z" fill="#6E6FD5"/>
</svg>
