<svg width="19" height="21" viewBox="0 0 19 21" fill="none" xmlns="http://www.w3.org/2000/svg">
<path d="M12.4799 10.0894C13.1376 10.0894 13.6708 9.55624 13.6708 8.89855C13.6708 8.24086 13.1376 7.7077 12.4799 7.7077C11.8222 7.7077 11.2891 8.24086 11.2891 8.89855C11.2891 9.55624 11.8222 10.0894 12.4799 10.0894Z" fill="#A2A2A2"/>
<path d="M7.35952 18.935L2.58786 14.1633C1.96778 13.5433 1.96778 12.5379 2.58786 11.9178L9.67248 4.83322C9.98718 4.51851 10.4195 4.35033 10.8642 4.36966L15.2249 4.55926C16.0236 4.59399 16.6719 5.21705 16.7383 6.0137L17.1223 10.6226C17.1612 11.0881 16.993 11.5469 16.6628 11.8772L9.605 18.935C8.98489 19.5551 7.97957 19.5551 7.35952 18.935Z" stroke="#A2A2A2" stroke-width="2" stroke-linecap="round"/>
<path d="M2.02643 11.3566L1.46506 10.7952C0.844981 10.1751 0.844981 9.16976 1.46506 8.54965L8.54964 1.46506C8.86442 1.15035 9.2967 0.982169 9.74136 1.0015L14.1022 1.1911C14.9007 1.22582 15.5491 1.84889 15.6155 2.64554L15.7276 3.99068" stroke="#A2A2A2" stroke-width="2" stroke-linecap="round"/>
</svg>
