<svg width="33" height="24" viewBox="0 0 33 24" fill="none" xmlns="http://www.w3.org/2000/svg">
<path d="M12.625 18.4444H17L15.7707 17.1956C15.4373 16.8569 15.25 16.3976 15.25 15.9186V13.1111C15.25 10.7889 13.7891 8.81341 11.75 8.08126V7.77778C11.75 6.79594 10.9665 6 10 6C9.0335 6 8.25 6.79594 8.25 7.77778V8.08126C6.21091 8.81341 4.75 10.7889 4.75 13.1111V15.9186C4.75 16.3976 4.5627 16.8569 4.22932 17.1956L3 18.4444H7.375M12.625 18.4444V19.3333C12.625 20.8061 11.4497 22 10 22C8.55025 22 7.375 20.8061 7.375 19.3333V18.4444M12.625 18.4444H7.375" stroke="#2D2E2E" stroke-width="2" stroke-linecap="round" stroke-linejoin="round"/>
<rect x="16" width="17" height="12" rx="6" fill="#FF4B55"/>
<path d="M21.6373 3.10227C21.9366 3.10227 22.2245 3.15246 22.501 3.25284C22.7794 3.35322 23.0275 3.51326 23.2453 3.73295C23.465 3.95265 23.6383 4.24432 23.7652 4.60795C23.894 4.9697 23.9593 5.41383 23.9612 5.94034C23.9612 6.43466 23.9053 6.87595 23.7936 7.2642C23.6837 7.65057 23.5256 7.97917 23.3191 8.25C23.1127 8.52083 22.8637 8.72727 22.572 8.86932C22.2803 9.00947 21.9546 9.07955 21.5947 9.07955C21.2065 9.07955 20.8637 9.00473 20.5663 8.85511C20.269 8.7036 20.0294 8.49811 19.8476 8.23864C19.6676 7.97727 19.5587 7.68371 19.5209 7.35795H20.7339C20.7813 7.57008 20.8807 7.73485 21.0322 7.85227C21.1837 7.9678 21.3712 8.02557 21.5947 8.02557C21.9735 8.02557 22.2614 7.8608 22.4584 7.53125C22.6553 7.19981 22.7548 6.74621 22.7566 6.17045H22.7169C22.6298 6.34091 22.5123 6.48769 22.3646 6.6108C22.2169 6.73201 22.0474 6.82576 21.8561 6.89205C21.6667 6.95833 21.465 6.99148 21.251 6.99148C20.9082 6.99148 20.6023 6.91098 20.3334 6.75C20.0644 6.58902 19.8523 6.36742 19.697 6.08523C19.5417 5.80303 19.464 5.48106 19.464 5.11932C19.4621 4.72917 19.5521 4.38163 19.7339 4.0767C19.9157 3.77178 20.1695 3.53314 20.4953 3.3608C20.8229 3.18655 21.2036 3.10038 21.6373 3.10227ZM21.6459 4.06818C21.4546 4.06818 21.2841 4.11364 21.1345 4.20455C20.9868 4.29545 20.8693 4.41761 20.7822 4.57102C20.697 4.72443 20.6553 4.89583 20.6572 5.08523C20.6572 5.27652 20.6989 5.44886 20.7822 5.60227C20.8674 5.75379 20.983 5.875 21.1288 5.96591C21.2765 6.05492 21.4451 6.09943 21.6345 6.09943C21.7765 6.09943 21.9082 6.07292 22.0294 6.01989C22.1506 5.96686 22.2557 5.89394 22.3447 5.80114C22.4356 5.70644 22.5066 5.59754 22.5578 5.47443C22.6089 5.35133 22.6345 5.22064 22.6345 5.08239C22.6326 4.89867 22.589 4.73011 22.5038 4.5767C22.4186 4.4233 22.3012 4.30019 22.1515 4.20739C22.0019 4.11458 21.8334 4.06818 21.6459 4.06818ZM26.7121 8.11364V4.09091H27.7291V8.11364H26.7121ZM25.2093 6.6108V5.59375H29.232V6.6108H25.2093Z" fill="white"/>
</svg>
