<svg width="72" height="72" viewBox="0 0 72 72" fill="none" xmlns="http://www.w3.org/2000/svg">
<g opacity="0.7">
<path d="M44.125 26.9667C41.6159 27.9823 38.8733 28.5416 36 28.5416C33.1267 28.5416 30.3841 27.9823 27.875 26.9667M39.6111 20.4167V18.6111C39.6111 17.6139 38.8027 16.8055 37.8056 16.8055H34.1944C33.1973 16.8055 32.3889 17.6139 32.3889 18.6111V20.4167M36 25.8333H36.009M29.6806 33.0555H42.3194C43.3166 33.0555 44.125 32.2472 44.125 31.25V22.2222C44.125 21.225 43.3166 20.4167 42.3194 20.4167H29.6806C28.6834 20.4167 27.875 21.225 27.875 22.2222V31.25C27.875 32.2472 28.6834 33.0555 29.6806 33.0555Z" stroke="white" stroke-width="1.5" stroke-linecap="round" stroke-linejoin="round"/>
<path d="M14.9707 53V45H17.8223C18.4447 45 18.9603 45.1133 19.3691 45.3398C19.778 45.5664 20.084 45.8763 20.2871 46.2695C20.4902 46.6602 20.5918 47.1003 20.5918 47.5898C20.5918 48.082 20.4889 48.5247 20.2832 48.918C20.0801 49.3086 19.7728 49.6185 19.3613 49.8477C18.9525 50.0742 18.4382 50.1875 17.8184 50.1875H15.8574V49.1641H17.709C18.1022 49.1641 18.4212 49.0964 18.666 48.9609C18.9108 48.8229 19.0905 48.6354 19.2051 48.3984C19.3197 48.1615 19.377 47.8919 19.377 47.5898C19.377 47.2878 19.3197 47.0195 19.2051 46.7852C19.0905 46.5508 18.9095 46.3672 18.6621 46.2344C18.4173 46.1016 18.0944 46.0352 17.6934 46.0352H16.1777V53H14.9707ZM24.3652 53.1211C23.8027 53.1211 23.3118 52.9922 22.8926 52.7344C22.4733 52.4766 22.1478 52.1159 21.916 51.6523C21.6842 51.1888 21.5684 50.6471 21.5684 50.0273C21.5684 49.4049 21.6842 48.8607 21.916 48.3945C22.1478 47.9284 22.4733 47.5664 22.8926 47.3086C23.3118 47.0508 23.8027 46.9219 24.3652 46.9219C24.9277 46.9219 25.4186 47.0508 25.8379 47.3086C26.2572 47.5664 26.5827 47.9284 26.8145 48.3945C27.0462 48.8607 27.1621 49.4049 27.1621 50.0273C27.1621 50.6471 27.0462 51.1888 26.8145 51.6523C26.5827 52.1159 26.2572 52.4766 25.8379 52.7344C25.4186 52.9922 24.9277 53.1211 24.3652 53.1211ZM24.3691 52.1406C24.7337 52.1406 25.0358 52.0443 25.2754 51.8516C25.515 51.6589 25.6921 51.4023 25.8066 51.082C25.9238 50.7617 25.9824 50.4089 25.9824 50.0234C25.9824 49.6406 25.9238 49.2891 25.8066 48.9687C25.6921 48.6458 25.515 48.3867 25.2754 48.1914C25.0358 47.9961 24.7337 47.8984 24.3691 47.8984C24.002 47.8984 23.6973 47.9961 23.4551 48.1914C23.2155 48.3867 23.0371 48.6458 22.9199 48.9687C22.8053 49.2891 22.748 49.6406 22.748 50.0234C22.748 50.4089 22.8053 50.7617 22.9199 51.082C23.0371 51.4023 23.2155 51.6589 23.4551 51.8516C23.6973 52.0443 24.002 52.1406 24.3691 52.1406ZM28.4658 53V47H29.5947V47.9531H29.6572C29.7666 47.6302 29.9593 47.3763 30.2354 47.1914C30.514 47.0039 30.8291 46.9102 31.1807 46.9102C31.2536 46.9102 31.3395 46.9128 31.4385 46.918C31.54 46.9232 31.6195 46.9297 31.6768 46.9375V48.0547C31.6299 48.0417 31.5465 48.0273 31.4268 48.0117C31.307 47.9935 31.1872 47.9844 31.0674 47.9844C30.7913 47.9844 30.5452 48.043 30.3291 48.1602C30.1156 48.2747 29.9463 48.4349 29.8213 48.6406C29.6963 48.8437 29.6338 49.0755 29.6338 49.3359V53H28.4658ZM35.8428 47V47.9375H32.5654V47H35.8428ZM33.4443 45.5625H34.6123V51.2383C34.6123 51.4648 34.6462 51.6354 34.7139 51.75C34.7816 51.862 34.8688 51.9388 34.9756 51.9805C35.085 52.0195 35.2035 52.0391 35.3311 52.0391C35.4248 52.0391 35.5068 52.0326 35.5771 52.0195C35.6475 52.0065 35.7021 51.9961 35.7412 51.9883L35.9521 52.9531C35.8844 52.9792 35.7881 53.0052 35.6631 53.0313C35.5381 53.0599 35.3818 53.0755 35.1943 53.0781C34.887 53.0833 34.6006 53.0286 34.335 52.9141C34.0693 52.7995 33.8545 52.6224 33.6904 52.3828C33.5264 52.1432 33.4443 51.8424 33.4443 51.4805V45.5625ZM39.9902 47V47.9375H36.5996V47H39.9902ZM37.5293 53V46.3047C37.5293 45.9297 37.6113 45.6185 37.7754 45.3711C37.9395 45.1211 38.1569 44.9349 38.4277 44.8125C38.6986 44.6875 38.9928 44.625 39.3105 44.625C39.5449 44.625 39.7454 44.6445 39.9121 44.6836C40.0788 44.7201 40.2025 44.7539 40.2832 44.7852L40.0098 45.7305C39.9551 45.7148 39.8848 45.6966 39.7988 45.6758C39.7129 45.6523 39.6087 45.6406 39.4863 45.6406C39.2025 45.6406 38.9993 45.7109 38.877 45.8516C38.7572 45.9922 38.6973 46.1953 38.6973 46.4609V53H37.5293ZM43.4863 53.1211C42.9238 53.1211 42.4329 52.9922 42.0137 52.7344C41.5944 52.4766 41.2689 52.1159 41.0371 51.6523C40.8053 51.1888 40.6895 50.6471 40.6895 50.0273C40.6895 49.4049 40.8053 48.8607 41.0371 48.3945C41.2689 47.9284 41.5944 47.5664 42.0137 47.3086C42.4329 47.0508 42.9238 46.9219 43.4863 46.9219C44.0488 46.9219 44.5397 47.0508 44.959 47.3086C45.3783 47.5664 45.7038 47.9284 45.9355 48.3945C46.1673 48.8607 46.2832 49.4049 46.2832 50.0273C46.2832 50.6471 46.1673 51.1888 45.9355 51.6523C45.7038 52.1159 45.3783 52.4766 44.959 52.7344C44.5397 52.9922 44.0488 53.1211 43.4863 53.1211ZM43.4902 52.1406C43.8548 52.1406 44.1569 52.0443 44.3965 51.8516C44.6361 51.6589 44.8132 51.4023 44.9277 51.082C45.0449 50.7617 45.1035 50.4089 45.1035 50.0234C45.1035 49.6406 45.0449 49.2891 44.9277 48.9687C44.8132 48.6458 44.6361 48.3867 44.3965 48.1914C44.1569 47.9961 43.8548 47.8984 43.4902 47.8984C43.123 47.8984 42.8184 47.9961 42.5762 48.1914C42.3366 48.3867 42.1582 48.6458 42.041 48.9687C41.9264 49.2891 41.8691 49.6406 41.8691 50.0234C41.8691 50.4089 41.9264 50.7617 42.041 51.082C42.1582 51.4023 42.3366 51.6589 42.5762 51.8516C42.8184 52.0443 43.123 52.1406 43.4902 52.1406ZM48.7549 45V53H47.5869V45H48.7549ZM50.3262 53V47H51.4941V53H50.3262ZM50.916 46.0742C50.7129 46.0742 50.5384 46.0065 50.3926 45.8711C50.2493 45.7331 50.1777 45.569 50.1777 45.3789C50.1777 45.1862 50.2493 45.0221 50.3926 44.8867C50.5384 44.7487 50.7129 44.6797 50.916 44.6797C51.1191 44.6797 51.2923 44.7487 51.4355 44.8867C51.5814 45.0221 51.6543 45.1862 51.6543 45.3789C51.6543 45.569 51.5814 45.7331 51.4355 45.8711C51.2923 46.0065 51.1191 46.0742 50.916 46.0742ZM55.5928 53.1211C55.0303 53.1211 54.5394 52.9922 54.1201 52.7344C53.7008 52.4766 53.3753 52.1159 53.1436 51.6523C52.9118 51.1888 52.7959 50.6471 52.7959 50.0273C52.7959 49.4049 52.9118 48.8607 53.1436 48.3945C53.3753 47.9284 53.7008 47.5664 54.1201 47.3086C54.5394 47.0508 55.0303 46.9219 55.5928 46.9219C56.1553 46.9219 56.6462 47.0508 57.0654 47.3086C57.4847 47.5664 57.8102 47.9284 58.042 48.3945C58.2738 48.8607 58.3896 49.4049 58.3896 50.0273C58.3896 50.6471 58.2738 51.1888 58.042 51.6523C57.8102 52.1159 57.4847 52.4766 57.0654 52.7344C56.6462 52.9922 56.1553 53.1211 55.5928 53.1211ZM55.5967 52.1406C55.9613 52.1406 56.2633 52.0443 56.5029 51.8516C56.7425 51.6589 56.9196 51.4023 57.0342 51.082C57.1514 50.7617 57.21 50.4089 57.21 50.0234C57.21 49.6406 57.1514 49.2891 57.0342 48.9687C56.9196 48.6458 56.7425 48.3867 56.5029 48.1914C56.2633 47.9961 55.9613 47.8984 55.5967 47.8984C55.2295 47.8984 54.9248 47.9961 54.6826 48.1914C54.443 48.3867 54.2646 48.6458 54.1475 48.9687C54.0329 49.2891 53.9756 49.6406 53.9756 50.0234C53.9756 50.4089 54.0329 50.7617 54.1475 51.082C54.2646 51.4023 54.443 51.6589 54.6826 51.8516C54.9248 52.0443 55.2295 52.1406 55.5967 52.1406Z" fill="white"/>
</g>
</svg>
