<svg width="72" height="72" viewBox="0 0 72 72" fill="none" xmlns="http://www.w3.org/2000/svg">
<rect x="6" y="6" width="60" height="60" rx="6" fill="#045DE9"/>
<path d="M36.0695 17.5C36.0695 17.9602 36.4426 18.3333 36.9028 18.3333H42.1132L36.9028 23.5437L33.881 20.5218C33.5555 20.1964 33.0279 20.1964 32.7025 20.5218L27.2858 25.9385C26.9603 26.2639 26.9603 26.7916 27.2858 27.117C27.6112 27.4424 28.1389 27.4424 28.4643 27.117L33.2917 22.2896L36.3136 25.3114C36.639 25.6369 37.1666 25.6369 37.4921 25.3114L43.2917 19.5118V24.7222C43.2917 25.1824 43.6648 25.5555 44.125 25.5555C44.5853 25.5555 44.9584 25.1824 44.9584 24.7222V17.5C44.9584 17.0397 44.5853 16.6666 44.125 16.6666H36.9028C36.4426 16.6666 36.0695 17.0397 36.0695 17.5Z" fill="white"/>
<path d="M27.6667 31.6666C27.2065 31.6666 26.8334 32.0397 26.8334 32.5C26.8334 32.9602 27.2065 33.3333 27.6667 33.3333H44.3334C44.7936 33.3333 45.1667 32.9602 45.1667 32.5C45.1667 32.0397 44.7936 31.6666 44.3334 31.6666H27.6667Z" fill="white"/>
<path d="M21.8271 46.0391V45H28.0186V46.0391H25.5225V53H24.3193V46.0391H21.8271ZM28.6699 53V47H29.7988V47.9531H29.8613C29.9707 47.6302 30.1634 47.3763 30.4395 47.1914C30.7181 47.0039 31.0332 46.9102 31.3848 46.9102C31.4577 46.9102 31.5436 46.9128 31.6426 46.918C31.7441 46.9232 31.8236 46.9297 31.8809 46.9375V48.0547C31.834 48.0417 31.7507 48.0273 31.6309 48.0117C31.5111 47.9935 31.3913 47.9844 31.2715 47.9844C30.9954 47.9844 30.7493 48.043 30.5332 48.1602C30.3197 48.2747 30.1504 48.4349 30.0254 48.6406C29.9004 48.8437 29.8379 49.0755 29.8379 49.3359V53H28.6699ZM34.584 53.1328C34.2038 53.1328 33.86 53.0625 33.5527 52.9219C33.2454 52.7786 33.002 52.5716 32.8223 52.3008C32.6452 52.0299 32.5566 51.6979 32.5566 51.3047C32.5566 50.9661 32.6217 50.6875 32.752 50.4687C32.8822 50.25 33.0579 50.0768 33.2793 49.9492C33.5007 49.8216 33.748 49.7253 34.0215 49.6602C34.2949 49.5951 34.5736 49.5456 34.8574 49.5117C35.2168 49.4701 35.5085 49.4362 35.7324 49.4102C35.9564 49.3815 36.1191 49.3359 36.2207 49.2734C36.3223 49.2109 36.373 49.1094 36.373 48.9687V48.9414C36.373 48.6003 36.2767 48.3359 36.084 48.1484C35.8939 47.9609 35.61 47.8672 35.2324 47.8672C34.8392 47.8672 34.5293 47.9544 34.3027 48.1289C34.0788 48.3008 33.9238 48.4922 33.8379 48.7031L32.7402 48.4531C32.8704 48.0885 33.0605 47.7943 33.3105 47.5703C33.5632 47.3437 33.8535 47.1797 34.1816 47.0781C34.5098 46.974 34.8548 46.9219 35.2168 46.9219C35.4564 46.9219 35.7103 46.9505 35.9785 47.0078C36.2493 47.0625 36.502 47.1641 36.7363 47.3125C36.9733 47.4609 37.1673 47.6732 37.3184 47.9492C37.4694 48.2227 37.5449 48.5781 37.5449 49.0156V53H36.4043V52.1797H36.3574C36.2819 52.3307 36.1686 52.4792 36.0176 52.625C35.8665 52.7708 35.6725 52.8919 35.4355 52.9883C35.1986 53.0846 34.9147 53.1328 34.584 53.1328ZM34.8379 52.1953C35.1608 52.1953 35.4368 52.1315 35.666 52.0039C35.8978 51.8763 36.0736 51.7096 36.1934 51.5039C36.3158 51.2956 36.377 51.0729 36.377 50.8359V50.0625C36.3353 50.1042 36.2546 50.1432 36.1348 50.1797C36.0176 50.2135 35.8835 50.2435 35.7324 50.2695C35.5814 50.293 35.4342 50.3151 35.291 50.3359C35.1478 50.3542 35.028 50.3698 34.9316 50.3828C34.7051 50.4115 34.498 50.4596 34.3105 50.5273C34.1257 50.5951 33.9772 50.6927 33.8652 50.8203C33.7559 50.9453 33.7012 51.112 33.7012 51.3203C33.7012 51.6094 33.8079 51.8281 34.0215 51.9766C34.235 52.1224 34.5072 52.1953 34.8379 52.1953ZM41.3467 53.1172C40.8623 53.1172 40.43 52.9935 40.0498 52.7461C39.6722 52.4961 39.3753 52.1406 39.1592 51.6797C38.9456 51.2161 38.8389 50.6602 38.8389 50.0117C38.8389 49.3633 38.9469 48.8086 39.1631 48.3477C39.3818 47.8867 39.6813 47.5339 40.0615 47.2891C40.4417 47.0443 40.8727 46.9219 41.3545 46.9219C41.7269 46.9219 42.0264 46.9844 42.2529 47.1094C42.4821 47.2318 42.6592 47.375 42.7842 47.5391C42.9118 47.7031 43.0107 47.8477 43.0811 47.9727H43.1514V45H44.3193V53H43.1787V52.0664H43.0811C43.0107 52.194 42.9092 52.3398 42.7764 52.5039C42.6462 52.668 42.4665 52.8112 42.2373 52.9336C42.0081 53.056 41.7113 53.1172 41.3467 53.1172ZM41.6045 52.1211C41.9404 52.1211 42.2243 52.0326 42.4561 51.8555C42.6904 51.6758 42.8675 51.4271 42.9873 51.1094C43.1097 50.7917 43.1709 50.4219 43.1709 50C43.1709 49.5833 43.111 49.2187 42.9912 48.9062C42.8714 48.5937 42.6956 48.3503 42.4639 48.1758C42.2321 48.0013 41.9456 47.9141 41.6045 47.9141C41.2529 47.9141 40.96 48.0052 40.7256 48.1875C40.4912 48.3698 40.3141 48.6185 40.1943 48.9336C40.0771 49.2487 40.0186 49.6042 40.0186 50C40.0186 50.401 40.0785 50.7617 40.1982 51.082C40.318 51.4023 40.4951 51.6562 40.7295 51.8437C40.9665 52.0286 41.2581 52.1211 41.6045 52.1211ZM48.5723 53.1211C47.9811 53.1211 47.472 52.9948 47.0449 52.7422C46.6204 52.487 46.2923 52.1289 46.0605 51.668C45.8314 51.2044 45.7168 50.6615 45.7168 50.0391C45.7168 49.4245 45.8314 48.8828 46.0605 48.4141C46.2923 47.9453 46.6152 47.5794 47.0293 47.3164C47.446 47.0534 47.9329 46.9219 48.4902 46.9219C48.8288 46.9219 49.1569 46.9779 49.4746 47.0898C49.7923 47.2018 50.0775 47.3776 50.3301 47.6172C50.5827 47.8568 50.7819 48.168 50.9277 48.5508C51.0736 48.931 51.1465 49.3932 51.1465 49.9375V50.3516H46.377V49.4766H50.002C50.002 49.1693 49.9395 48.8971 49.8145 48.6602C49.6895 48.4206 49.5137 48.2318 49.2871 48.0937C49.0632 47.9557 48.8001 47.8867 48.498 47.8867C48.1699 47.8867 47.8835 47.9674 47.6387 48.1289C47.3965 48.2878 47.209 48.4961 47.0762 48.7539C46.946 49.0091 46.8809 49.2865 46.8809 49.5859V50.2695C46.8809 50.6706 46.9512 51.0117 47.0918 51.293C47.235 51.5742 47.4342 51.7891 47.6895 51.9375C47.9447 52.0833 48.2428 52.1562 48.584 52.1562C48.8053 52.1562 49.0072 52.125 49.1895 52.0625C49.3717 51.9974 49.5293 51.901 49.6621 51.7734C49.7949 51.6458 49.8965 51.4883 49.9668 51.3008L51.0723 51.5C50.9837 51.8255 50.8249 52.1107 50.5957 52.3555C50.3691 52.5977 50.084 52.7865 49.7402 52.9219C49.3991 53.0547 49.0098 53.1211 48.5723 53.1211Z" fill="white"/>
</svg>
